<?xml version="1.0" encoding="utf-8"?>
<!-- Generator: Adobe Illustrator 27.5.0, SVG Export Plug-In . SVG Version: 6.00 Build 0)  -->
<svg version="1.1" xmlns="http://www.w3.org/2000/svg" xmlns:xlink="http://www.w3.org/1999/xlink" x="0px" y="0px"
	 viewBox="0 0 500 500" style="enable-background:new 0 0 500 500;" xml:space="preserve">
<g id="BACKGROUND">
</g>
<g id="OBJECTS">
	<g>
		<g>
			<rect x="357.977" y="46.896" style="fill:#E0E7FF;" width="89.948" height="89.948"/>
			<rect x="360.761" y="55.224" style="fill:#FFFFFF;" width="84.38" height="78.333"/>
			<g>
				<path style="fill:#3BBAFF;" d="M434.512,51.246c0,0.854-0.692,1.546-1.546,1.546c-0.854,0-1.546-0.692-1.546-1.546
					c0-0.854,0.692-1.546,1.546-1.546C433.82,49.7,434.512,50.393,434.512,51.246z"/>
				<path style="fill:#FF855C;" d="M439.827,51.246c0,0.854-0.692,1.546-1.546,1.546c-0.854,0-1.546-0.692-1.546-1.546
					c0-0.854,0.692-1.546,1.546-1.546C439.135,49.7,439.827,50.393,439.827,51.246z"/>
				<path style="fill:#FF96AC;" d="M445.142,51.246c0,0.854-0.692,1.546-1.546,1.546s-1.546-0.692-1.546-1.546
					c0-0.854,0.692-1.546,1.546-1.546S445.142,50.393,445.142,51.246z"/>
			</g>
		</g>
		<rect x="371.72" y="67.985" style="fill:#2A2640;" width="61.083" height="3.191"/>
		<rect x="371.72" y="83.028" style="fill:#E0E7FF;" width="26.667" height="3.191"/>
		<rect x="406.819" y="83.028" style="fill:#E0E7FF;" width="25.983" height="22.245"/>
		<rect x="371.72" y="89.637" style="fill:#E0E7FF;" width="26.667" height="3.191"/>
		<rect x="371.72" y="96.247" style="fill:#E0E7FF;" width="26.667" height="3.191"/>
		<rect x="371.72" y="102.857" style="fill:#E0E7FF;" width="26.667" height="3.191"/>
		<rect x="371.72" y="109.466" style="fill:#E0E7FF;" width="26.667" height="3.191"/>
		<rect x="406.819" y="109.466" style="fill:#E0E7FF;" width="25.983" height="3.191"/>
		<rect x="371.72" y="116.076" style="fill:#E0E7FF;" width="26.667" height="3.191"/>
		<rect x="406.819" y="116.076" style="fill:#E0E7FF;" width="25.983" height="3.191"/>
		<rect x="371.72" y="122.686" style="fill:#E0E7FF;" width="26.667" height="3.191"/>
		<rect x="406.819" y="122.686" style="fill:#E0E7FF;" width="25.983" height="3.191"/>
	</g>
	<g>
		<g>
			<rect x="299.847" y="131.351" style="fill:#E0E7FF;" width="82.101" height="82.101"/>
			<rect x="302.388" y="138.953" style="fill:#FFFFFF;" width="77.018" height="71.499"/>
			<g>
				<path style="fill:#BDE8FF;" d="M369.704,135.322c0,0.779-0.632,1.411-1.411,1.411c-0.779,0-1.411-0.632-1.411-1.411
					s0.632-1.411,1.411-1.411C369.072,133.911,369.704,134.543,369.704,135.322z"/>
				<path style="fill:#FFB59C;" d="M374.555,135.322c0,0.779-0.632,1.411-1.411,1.411c-0.779,0-1.411-0.632-1.411-1.411
					s0.632-1.411,1.411-1.411C373.923,133.911,374.555,134.543,374.555,135.322z"/>
				<path style="fill:#FF96AC;" d="M379.406,135.322c0,0.779-0.632,1.411-1.411,1.411c-0.779,0-1.411-0.632-1.411-1.411
					s0.632-1.411,1.411-1.411C378.774,133.911,379.406,134.543,379.406,135.322z"/>
			</g>
		</g>
		<g>
			<path style="fill:#BDE8FF;" d="M341.155,175.217l19.749-19.749c-5.054-5.054-12.037-8.18-19.749-8.18L341.155,175.217
				L341.155,175.217z"/>
			<path style="fill:#FFFFFF;" d="M341.155,147.288c-7.713,0-14.695,3.126-19.749,8.18l19.749,19.749V147.288z"/>
			<polygon style="fill:#E0E7FF;" points="341.155,175.217 341.155,175.217 341.155,175.217 			"/>
			<polygon style="fill:#E0E7FF;" points="341.155,175.217 341.155,175.217 341.155,175.217 			"/>
			<path style="fill:#FFB59C;" d="M369.085,175.217c0-7.713-3.126-14.695-8.18-19.749l-19.749,19.749H369.085z"/>
			<path style="fill:#F7EC89;" d="M321.406,155.468c-5.054,5.054-8.18,12.037-8.18,19.749h27.93L321.406,155.468z"/>
			<path style="fill:#E0E7FF;" d="M341.155,175.217h-27.93c0,7.712,3.126,14.695,8.18,19.749L341.155,175.217L341.155,175.217z"/>
			<path style="fill:#FFB59C;" d="M341.155,175.217L341.155,175.217l19.749,19.749c5.054-5.054,8.18-12.037,8.18-19.749H341.155z"/>
			<path style="fill:#FFB59C;" d="M341.155,175.217v27.929c7.713,0,14.695-3.126,19.749-8.18L341.155,175.217L341.155,175.217z"/>
			<path style="fill:#E0E7FF;" d="M321.406,194.966c5.054,5.054,12.037,8.18,19.749,8.18v-27.929L321.406,194.966z"/>
		</g>
	</g>
	<g>
		<g>
			<rect x="269.379" y="220.517" style="fill:#E0E7FF;" width="89.948" height="89.948"/>
			<rect x="272.163" y="228.846" style="fill:#FFFFFF;" width="84.38" height="78.333"/>
			<g>
				<path style="fill:#3BBAFF;" d="M345.914,224.868c0,0.854-0.692,1.546-1.546,1.546c-0.854,0-1.546-0.692-1.546-1.546
					c0-0.854,0.692-1.546,1.546-1.546C345.221,223.322,345.914,224.014,345.914,224.868z"/>
				<path style="fill:#FF855C;" d="M351.228,224.868c0,0.854-0.692,1.546-1.546,1.546s-1.546-0.692-1.546-1.546
					c0-0.854,0.692-1.546,1.546-1.546S351.228,224.014,351.228,224.868z"/>
				<path style="fill:#FF96AC;" d="M356.543,224.868c0,0.854-0.692,1.546-1.546,1.546c-0.854,0-1.546-0.692-1.546-1.546
					c0-0.854,0.692-1.546,1.546-1.546C355.851,223.322,356.543,224.014,356.543,224.868z"/>
			</g>
		</g>
		<rect x="283.121" y="241.606" style="fill:#2A2640;" width="61.083" height="3.191"/>
		<rect x="283.121" y="256.649" style="fill:#E0E7FF;" width="26.667" height="3.191"/>
		<rect x="318.221" y="256.649" style="fill:#E0E7FF;" width="25.983" height="3.191"/>
		<rect x="283.121" y="263.259" style="fill:#E0E7FF;" width="26.667" height="3.191"/>
		<rect x="318.221" y="263.259" style="fill:#E0E7FF;" width="25.983" height="3.191"/>
		<rect x="283.121" y="269.868" style="fill:#E0E7FF;" width="26.667" height="3.191"/>
		<rect x="318.221" y="269.868" style="fill:#E0E7FF;" width="25.983" height="3.191"/>
		<rect x="283.121" y="276.478" style="fill:#E0E7FF;" width="26.667" height="3.191"/>
		<rect x="318.221" y="276.478" style="fill:#E0E7FF;" width="25.983" height="3.191"/>
		<rect x="283.121" y="283.088" style="fill:#E0E7FF;" width="26.667" height="3.191"/>
		<rect x="318.221" y="283.088" style="fill:#E0E7FF;" width="25.983" height="3.191"/>
		<rect x="283.121" y="289.698" style="fill:#E0E7FF;" width="26.667" height="3.191"/>
		<rect x="318.221" y="289.698" style="fill:#E0E7FF;" width="25.983" height="3.191"/>
		<rect x="283.121" y="296.307" style="fill:#E0E7FF;" width="26.667" height="3.191"/>
		<rect x="318.221" y="296.307" style="fill:#E0E7FF;" width="25.983" height="3.191"/>
	</g>
	<g>
		<g>
			<rect x="23.959" y="47.307" style="fill:#E0E7FF;" width="89.948" height="89.949"/>
			<rect x="26.743" y="55.636" style="fill:#FFFFFF;" width="84.38" height="78.333"/>
			<g>
				<path style="fill:#3BBAFF;" d="M100.494,51.658c0,0.854-0.692,1.546-1.546,1.546c-0.854,0-1.546-0.692-1.546-1.546
					c0-0.854,0.692-1.546,1.546-1.546C99.801,50.112,100.494,50.804,100.494,51.658z"/>
				<path style="fill:#FF855C;" d="M105.809,51.658c0,0.854-0.692,1.546-1.546,1.546s-1.546-0.692-1.546-1.546
					c0-0.854,0.692-1.546,1.546-1.546S105.809,50.804,105.809,51.658z"/>
				<path style="fill:#FF96AC;" d="M111.123,51.658c0,0.854-0.692,1.546-1.546,1.546c-0.854,0-1.546-0.692-1.546-1.546
					c0-0.854,0.692-1.546,1.546-1.546C110.431,50.112,111.123,50.804,111.123,51.658z"/>
			</g>
		</g>
		<rect x="37.701" y="68.396" style="fill:#2A2640;" width="61.083" height="3.191"/>
		<rect x="37.701" y="83.439" style="fill:#E0E7FF;" width="26.667" height="3.191"/>
		<rect x="72.801" y="83.439" style="fill:#E0E7FF;" width="25.983" height="3.191"/>
		<rect x="37.701" y="90.049" style="fill:#E0E7FF;" width="26.667" height="3.191"/>
		<rect x="72.801" y="90.049" style="fill:#E0E7FF;" width="25.983" height="3.191"/>
		<rect x="37.701" y="96.659" style="fill:#E0E7FF;" width="26.667" height="3.191"/>
		<rect x="72.801" y="96.659" style="fill:#E0E7FF;" width="25.983" height="3.191"/>
		<rect x="37.701" y="103.268" style="fill:#E0E7FF;" width="26.667" height="3.191"/>
		<rect x="72.801" y="103.268" style="fill:#E0E7FF;" width="25.983" height="3.191"/>
		<rect x="37.701" y="109.878" style="fill:#E0E7FF;" width="26.667" height="3.191"/>
		<rect x="72.801" y="109.878" style="fill:#E0E7FF;" width="25.983" height="3.191"/>
		<rect x="37.701" y="116.488" style="fill:#E0E7FF;" width="26.667" height="3.191"/>
		<rect x="72.801" y="116.488" style="fill:#E0E7FF;" width="25.983" height="3.191"/>
		<rect x="37.701" y="123.097" style="fill:#E0E7FF;" width="26.667" height="3.191"/>
		<rect x="72.801" y="123.097" style="fill:#E0E7FF;" width="25.983" height="3.191"/>
	</g>
	<g>
		<g>
			<rect x="77.749" y="110.755" style="fill:#E0E7FF;" width="125.272" height="125.272"/>
			<rect x="81.626" y="122.354" style="fill:#FFFFFF;" width="117.517" height="109.096"/>
			<g>
				<path style="fill:#BDE8FF;" d="M184.339,116.814c0,1.189-0.964,2.153-2.153,2.153c-1.189,0-2.153-0.964-2.153-2.153
					c0-1.189,0.964-2.153,2.153-2.153C183.375,114.661,184.339,115.625,184.339,116.814z"/>
				<path style="fill:#FF855C;" d="M191.741,116.814c0,1.189-0.964,2.153-2.153,2.153c-1.189,0-2.153-0.964-2.153-2.153
					c0-1.189,0.964-2.153,2.153-2.153C190.777,114.661,191.741,115.625,191.741,116.814z"/>
				<path style="fill:#FF96AC;" d="M199.143,116.814c0,1.189-0.964,2.153-2.153,2.153c-1.189,0-2.153-0.964-2.153-2.153
					c0-1.189,0.964-2.153,2.153-2.153C198.179,114.661,199.143,115.625,199.143,116.814z"/>
			</g>
		</g>
		<g>
			<g>
				
					<rect x="181.736" y="140.003" transform="matrix(-1 -1.224647e-16 1.224647e-16 -1 371.1189 353.5606)" style="fill:#BDE8FF;" width="7.646" height="73.555"/>
				<rect x="167.033" y="166.836" style="fill:#BDE8FF;" width="7.646" height="46.722"/>
				<rect x="152.329" y="186.724" style="fill:#BDE8FF;" width="7.646" height="26.833"/>
				<rect x="137.625" y="186.724" style="fill:#BDE8FF;" width="7.646" height="26.833"/>
				<rect x="122.922" y="199.146" style="fill:#BDE8FF;" width="7.646" height="14.412"/>
				<rect x="108.218" y="205.981" style="fill:#BDE8FF;" width="7.646" height="7.576"/>
				<rect x="93.514" y="205.981" style="fill:#BDE8FF;" width="7.646" height="7.576"/>
			</g>
			<polyline style="fill:none;stroke:#2A2640;stroke-width:0.75;stroke-linecap:round;stroke-miterlimit:10;" points="
				86.922,134.411 86.922,218.12 193.847,218.12 			"/>
		</g>
		<path style="fill:none;stroke:#FF96AC;stroke-width:0.75;stroke-linecap:round;stroke-miterlimit:10;" d="M92.021,203.313
			c0,0,52.784-8.509,89.839-68.779"/>
	</g>
	<path style="fill:#E0E7FF;" d="M27.276,381.827h175.76c6.765,0,12.249,5.484,12.249,12.249v67.227
		c0,6.765-5.484,12.249-12.249,12.249H27.276c-6.765,0-12.249-5.484-12.249-12.249v-67.227
		C15.028,387.311,20.512,381.827,27.276,381.827z"/>
	<g>
		<g>
			<path style="fill:#E6E6E6;" d="M258.82,323.323c-0.785-0.607-1.57-1.213-2.355-1.82c-1.73-1.004-3.595-1.517-5.585-1.57
				c0.124-0.284,0.227-0.572,0.283-0.858c0.11-0.555,0.186-1.115,0.228-1.681c0.011-0.282-0.01-0.555-0.046-0.825
				c1.086,1.504,2.838,2.546,5.265,2.546c8.78,0,8.794-13.645,0-13.645c-5.037,0-7.183,4.49-6.442,8.319
				c-0.639-0.904-1.485-1.589-2.582-2.052c-0.738-0.387-1.532-0.565-2.385-0.533c-1.117,0.004-2.158,0.285-3.124,0.845
				c-1.357,0.875-2.407,2.113-2.844,3.699c-0.426,1.548-0.187,3.383,0.624,4.769c0.669,1.143,1.671,1.953,2.834,2.49
				c-0.109,0.107-0.225,0.202-0.33,0.315c-1.135,1.054-1.937,2.303-2.406,3.745c-0.729,1.387-1.063,2.882-1.002,4.484
				c0.015,0.108,0.029,0.216,0.044,0.324c-5.16,1.823-4.551,10.803,1.856,10.906c-0.021,0.227-0.045,0.453-0.046,0.685
				c-0.038,1.007,0.172,1.947,0.63,2.819c0.295,0.907,0.799,1.692,1.513,2.354c0.913,0.907,1.989,1.534,3.228,1.882l0.399,0.056
				c0.676,0.091,1.351,0.182,2.027,0.272c0.676-0.091,1.351-0.182,2.027-0.272c0.607-0.256,1.214-0.512,1.821-0.769
				c0.514-0.397,1.029-0.795,1.543-1.192c0.397-0.514,0.795-1.029,1.192-1.543c0.256-0.607,0.512-1.214,0.769-1.821
				c0.091-0.676,0.182-1.351,0.272-2.027c0.019-0.499-0.025-0.98-0.123-1.447c1.015-0.477,1.92-1.143,2.715-1.998
				c1.135-1.054,1.937-2.303,2.406-3.745c0.729-1.387,1.063-2.882,1.002-4.484c-0.139-1.031-0.277-2.063-0.416-3.094
				C261.26,326.487,260.262,324.776,258.82,323.323z"/>
			<path style="fill:#E6E6E6;" d="M259.642,382.893c-0.505-1.802-1.417-3.366-2.735-4.693c-2.081-1.91-4.638-3.115-7.52-3.115
				c-1.464-0.055-2.83,0.25-4.097,0.916c-1.318,0.429-2.459,1.162-3.423,2.199c-1.037,0.963-1.77,2.104-2.199,3.423
				c-0.666,1.267-0.971,2.633-0.916,4.097c0.127,0.942,0.253,1.885,0.38,2.827c0.505,1.802,1.417,3.366,2.735,4.693
				c2.081,1.91,4.638,3.115,7.52,3.115c1.464,0.055,2.83-0.25,4.097-0.916c1.318-0.429,2.459-1.162,3.423-2.199
				c1.037-0.963,1.77-2.104,2.199-3.423c0.666-1.267,0.971-2.633,0.916-4.097C259.895,384.777,259.768,383.835,259.642,382.893z"/>
			<path style="fill:#E6E6E6;" d="M248.183,398.96c-1.132,0-2.321,0.492-3.121,1.293c-0.766,0.766-1.342,2.022-1.293,3.122
				c0.107,2.392,1.94,4.414,4.414,4.414c1.132,0,2.321-0.492,3.121-1.293c0.766-0.766,1.342-2.022,1.293-3.121
				C252.491,400.983,250.658,398.96,248.183,398.96z"/>
			<path style="fill:#E6E6E6;" d="M242.566,409.192c-2.841,0-2.845,4.414,0,4.414C245.406,413.606,245.411,409.192,242.566,409.192z
				"/>
			<path style="fill:#E6E6E6;" d="M250.591,416.012c-8.005,0-8.018,12.441,0,12.441
				C258.596,428.453,258.609,416.012,250.591,416.012z"/>
			<path style="fill:#E6E6E6;" d="M259.642,255.513c-0.505-1.802-1.417-3.366-2.735-4.693c-2.081-1.91-4.638-3.115-7.52-3.115
				c-1.464-0.055-2.83,0.25-4.097,0.916c-1.318,0.429-2.459,1.162-3.423,2.199c-1.037,0.963-1.77,2.104-2.199,3.423
				c-0.666,1.267-0.971,2.633-0.916,4.097c0.127,0.942,0.253,1.885,0.38,2.827c0.505,1.802,1.417,3.366,2.735,4.693
				c2.081,1.91,4.638,3.115,7.52,3.115c1.464,0.055,2.83-0.25,4.097-0.916c1.318-0.429,2.459-1.162,3.423-2.199
				c1.037-0.963,1.77-2.104,2.199-3.423c0.666-1.267,0.971-2.633,0.916-4.097C259.895,257.397,259.768,256.455,259.642,255.513z"/>
			<path style="fill:#E6E6E6;" d="M248.183,271.58c-1.132,0-2.321,0.492-3.121,1.293c-0.766,0.766-1.342,2.022-1.293,3.121
				c0.107,2.392,1.94,4.414,4.414,4.414c1.132,0,2.321-0.492,3.121-1.293c0.766-0.766,1.342-2.022,1.293-3.121
				C252.491,273.603,250.658,271.58,248.183,271.58z"/>
			<path style="fill:#E6E6E6;" d="M242.566,281.812c-2.841,0-2.845,4.414,0,4.414C245.406,286.226,245.411,281.812,242.566,281.812z
				"/>
			<path style="fill:#E6E6E6;" d="M250.591,288.632c-8.005,0-8.018,12.44,0,12.44C258.596,301.073,258.609,288.632,250.591,288.632z
				"/>
			<path style="fill:#E6E6E6;" d="M189.39,471.496h120.482c0.546-1.497,0.79-3.076,0.728-4.74c-0.194-1.44-0.387-2.88-0.581-4.321
				c-0.772-2.753-2.165-5.144-4.18-7.172c-1.096-0.847-2.193-1.694-3.289-2.541c-2.535-1.47-5.269-2.21-8.203-2.219
				c-2.138-0.081-4.135,0.357-5.999,1.283c0.296-1.383,0.429-2.814,0.364-4.276c-0.487-10.872-8.816-20.065-20.065-20.065
				c-6.229,0-12.304,3.251-16.111,8.16c-0.562-0.773-1.181-1.513-1.873-2.21c-1.232-0.952-2.464-1.903-3.695-2.855
				c-2.848-1.652-5.92-2.483-9.216-2.493c-2.514-0.095-4.859,0.429-7.035,1.573c-2.264,0.736-4.223,1.995-5.876,3.776
				c-1.781,1.654-3.039,3.613-3.775,5.876c-1.143,2.176-1.667,4.521-1.573,7.035c0.179,1.333,0.358,2.666,0.537,3.999
				c-0.269,0.13-0.539,0.258-0.795,0.411c-0.97-0.856-2.282-1.401-3.952-1.401c-3.61,0-5.589,2.531-5.945,5.309
				c-0.23-0.178-0.46-0.355-0.69-0.533c-1.855-1.076-3.857-1.617-6.004-1.624c-1.638-0.062-3.165,0.28-4.583,1.025
				c-1.475,0.48-2.751,1.3-3.828,2.46c-1.16,1.078-1.98,2.354-2.46,3.828c-0.745,1.418-1.086,2.945-1.024,4.583l0.425,3.162
				c0.165,0.59,0.382,1.15,0.625,1.694c-0.555,0.278-1.068,0.634-1.494,1.06C189.961,470.62,189.653,471.039,189.39,471.496z"/>
			<path style="fill:#E6E6E6;" d="M248.585,363.049c-6.456,0-6.466,10.033,0,10.033C255.04,373.082,255.051,363.049,248.585,363.049
				z"/>
		</g>
		<g>
			<path style="fill:none;stroke:#B3B3B3;stroke-width:0.75;stroke-miterlimit:10;" d="M236.016,298.046
				c-0.227,12.274-0.453,24.548-0.68,36.823"/>
			
				<line style="fill:none;stroke:#B3B3B3;stroke-width:0.75;stroke-miterlimit:10;" x1="237.364" y1="351.06" x2="237.364" y2="398.994"/>
			
				<line style="fill:none;stroke:#B3B3B3;stroke-width:0.75;stroke-miterlimit:10;" x1="242.125" y1="331.061" x2="242.125" y2="372.333"/>
			
				<line style="fill:none;stroke:#B3B3B3;stroke-width:0.75;stroke-miterlimit:10;" x1="264.664" y1="290.111" x2="264.664" y2="314.556"/>
			
				<line style="fill:none;stroke:#B3B3B3;stroke-width:0.75;stroke-miterlimit:10;" x1="263.076" y1="337.41" x2="263.076" y2="372.365"/>
			
				<line style="fill:none;stroke:#B3B3B3;stroke-width:0.75;stroke-miterlimit:10;" x1="253.553" y1="371.694" x2="253.553" y2="415.557"/>
		</g>
		<g>
			<g>
				<ellipse style="fill:#FF3B63;" cx="250" cy="227.084" rx="15.564" ry="36.648"/>
				<ellipse style="fill:#F7EC89;" cx="250" cy="212.999" rx="9.582" ry="22.563"/>
				<path style="fill:#FFFFFF;" d="M255.121,202.495c0,6.66-2.293,12.06-5.121,12.06c-2.829,0-5.122-5.399-5.122-12.06
					c0-6.66,2.293-12.06,5.122-12.06C252.828,190.436,255.121,195.835,255.121,202.495z"/>
			</g>
			<g>
				<g>
					<path style="fill:#F7EC89;" d="M295.437,110.373c0-26.246-22.254-47.295-48.922-45.306c-22.4,1.67-40.405,19.873-41.854,42.288
						c-1.262,19.517,9.812,36.592,26.177,44.215c1.742,0.811,2.828,2.59,2.828,4.512v17.727h30.91v-16.947
						c0-1.99,1.165-3.821,3-4.591C283.94,145.399,295.437,129.234,295.437,110.373z"/>
					<path style="fill:none;stroke:#2A2640;stroke-width:0.75;stroke-linecap:round;stroke-miterlimit:10;" d="M217.516,131.995
						c3.901,5.792,9.078,10.72,15.056,14.33"/>
					<path style="fill:none;stroke:#FFFFFF;stroke-width:0.75;stroke-linecap:round;stroke-miterlimit:10;" d="M263.891,73.638
						c15.224,6.113,25.984,21.985,26.024,38.391"/>
					<path style="fill:none;stroke:#2A2640;stroke-width:0.75;stroke-linecap:round;stroke-miterlimit:10;" d="M244.419,163.676
						c0,0-3.808-19.808-4.958-29.711"/>
					<path style="fill:none;stroke:#2A2640;stroke-width:0.75;stroke-linecap:round;stroke-miterlimit:10;" d="M253.922,163.676
						c0,0,3.808-19.808,4.959-29.711"/>
					<path style="fill:none;stroke:#2A2640;stroke-width:0.75;stroke-linecap:round;stroke-miterlimit:10;" d="M239.426,133.982
						c0.368-0.844,1.114-1.143,1.767-0.984c0.654,0.159,1.24,0.691,1.806,1.218c0.566,0.527,1.147,1.068,1.798,1.252
						c0.902,0.254,1.825-0.213,2.646-0.841c0.82-0.628,1.589-1.425,2.451-1.906c0.861-0.482,1.868-0.611,2.662,0.09
						c0.67,0.591,1.145,1.723,1.897,1.995c0.731,0.263,1.452-0.376,2.159-0.763c0.707-0.388,1.93-1.327,2.261-0.293"/>
				</g>
				<g>
					<path style="fill:#2A2640;" d="M248.972,199.273L248.972,199.273c-7.608,0-13.776-6.168-13.776-13.776v2.311
						c0-7.609,6.168-13.776,13.776-13.776l0,0c7.609,0,13.776,6.168,13.776,13.776v-2.311
						C262.748,193.105,256.58,199.273,248.972,199.273z"/>
					<path style="fill:#B3B3B3;" d="M266.004,191.848h-34.065c-2.087,0-3.779-1.692-3.779-3.779v-23.667
						c0-2.087,1.692-3.779,3.779-3.779h34.065c2.087,0,3.779,1.692,3.779,3.779v23.667
						C269.783,190.157,268.091,191.848,266.004,191.848z"/>
					<g>
						
							<line style="fill:none;stroke:#2A2640;stroke-width:0.75;stroke-linecap:round;stroke-miterlimit:10;" x1="233.695" y1="185.996" x2="265.696" y2="185.996"/>
						
							<line style="fill:none;stroke:#2A2640;stroke-width:0.75;stroke-linecap:round;stroke-miterlimit:10;" x1="233.695" y1="179.142" x2="265.696" y2="179.142"/>
						
							<line style="fill:none;stroke:#2A2640;stroke-width:0.75;stroke-linecap:round;stroke-miterlimit:10;" x1="233.695" y1="172.288" x2="265.696" y2="172.288"/>
						
							<line style="fill:none;stroke:#2A2640;stroke-width:0.75;stroke-linecap:round;stroke-miterlimit:10;" x1="233.695" y1="165.434" x2="265.696" y2="165.434"/>
					</g>
					
						<line style="fill:none;stroke:#FFFFFF;stroke-width:0.75;stroke-linecap:round;stroke-miterlimit:10;" x1="242.796" y1="168.846" x2="257.283" y2="168.846"/>
					
						<line style="fill:none;stroke:#FFFFFF;stroke-width:0.75;stroke-linecap:round;stroke-miterlimit:10;" x1="254.998" y1="176.056" x2="263.635" y2="176.056"/>
					
						<line style="fill:none;stroke:#FFFFFF;stroke-width:0.75;stroke-linecap:round;stroke-miterlimit:10;" x1="257.494" y1="182.157" x2="262.77" y2="182.157"/>
					
						<line style="fill:none;stroke:#FFFFFF;stroke-width:0.75;stroke-linecap:round;stroke-miterlimit:10;" x1="256.385" y1="162.745" x2="262.313" y2="162.745"/>
					
						<line style="fill:none;stroke:#FFFFFF;stroke-width:0.75;stroke-linecap:round;stroke-miterlimit:10;" x1="246.679" y1="187.703" x2="252.805" y2="187.703"/>
					
						<line style="fill:none;stroke:#FFFFFF;stroke-width:0.75;stroke-linecap:round;stroke-miterlimit:10;" x1="268.309" y1="169.678" x2="268.309" y2="178.896"/>
				</g>
			</g>
		</g>
	</g>
	<path style="fill:#E0E7FF;" d="M317.875,402.491h112.033c5.48,0,9.923,4.443,9.923,9.923v51.215c0,5.48-4.443,9.923-9.923,9.923
		H317.875c-5.48,0-9.923-4.443-9.923-9.923v-51.215C307.952,406.934,312.395,402.491,317.875,402.491z"/>
	<g>
		<g>
			<g>
				<g>
					<path style="fill:#3BBAFF;" d="M329.945,325.783c-1.839,8.983-3.83,18.202-7.09,26.785
						c-3.831,10.088-17.092,14.881-25.578,20.364c-6.978,4.509-0.491,15.728,6.538,11.185c10.633-6.871,25.064-12.633,30.296-25.004
						c4.01-9.481,6.265-19.826,8.324-29.886C344.102,321.089,331.618,317.608,329.945,325.783L329.945,325.783z"/>
				</g>
			</g>
			<path style="fill:#2A2640;" d="M336.711,321.048c-3.831-0.349-6.227,2.496-6.962,5.879c0.129-0.607-0.276,1.252-0.353,1.597
				c-0.554,2.475-0.34,1.961-0.94,4.425c-0.188,0.773-0.383,1.546-0.575,2.32l-7.988,38.972c6.523-4.412,12.279-9.026,15.122-17.305
				c3.557-10.36,5.371-18.211,7.632-28.913C343.376,324.573,339.875,321.337,336.711,321.048z"/>
			<path style="fill:#FF9991;" d="M298.328,389.893c5.013-0.891,8.354-5.678,7.463-10.691c-0.891-5.013-5.678-8.354-10.691-7.463
				c-5.013,0.891-8.354,5.678-7.463,10.691C288.528,387.443,293.315,390.785,298.328,389.893z"/>
		</g>
		<g>
			<path style="fill:#2A2640;" d="M374.387,329.288l-16.21-1.605l3.623-36.589c0.443-4.476,4.431-7.746,8.908-7.303l0,0
				c4.476,0.443,7.746,4.431,7.303,8.908L374.387,329.288z"/>
			<path style="fill:#3BBAFF;" d="M363.767,301.299L363.767,301.299c-2.028-0.201-3.509-2.008-3.308-4.035l0.822-8.302
				c0.201-2.028,2.008-3.509,4.036-3.308l0,0c2.028,0.201,3.509,2.008,3.308,4.035l-0.822,8.302
				C367.601,300.019,365.795,301.5,363.767,301.299z"/>
		</g>
		<g>
			<path style="fill:#2A2640;" d="M321.856,390.499l0.771-8.636l35.658,3.96l0.198,5.321c0.263,7.074-5.4,12.952-12.479,12.952
				h-11.709C326.96,404.096,321.205,397.804,321.856,390.499z"/>
			<g>
				<g>
					<path style="fill:#2A2640;" d="M346.866,384.811c-17.688,0.258-35.409,0.203-53.09,0.773
						c-5.559,0.179-11.374,1.531-14.486,6.684c-1.263,2.091-2.221,4.443-3.312,6.626c-5.019,10.041-10.037,20.081-15.056,30.122
						c-3.785,7.573-7.57,15.146-11.355,22.718c-5.738,11.48,11.508,21.621,17.269,10.094c9.934-19.875,19.868-39.749,29.801-59.624
						c-1.196,1.196-2.392,2.392-3.587,3.587c0.955-0.666-1.966,0.038-0.599-0.189c0.478-0.079,1.043-0.022,1.525-0.022
						c2.009-0.001,4.019-0.059,6.028-0.088c6.307-0.092,12.615-0.184,18.922-0.275c9.313-0.136,18.626-0.271,27.939-0.407
						C359.724,404.624,359.762,384.624,346.866,384.811L346.866,384.811z"/>
				</g>
				<path style="fill:none;stroke:#FFFFFF;stroke-width:0.75;stroke-linecap:round;stroke-miterlimit:10;" d="M291.498,403.124
					c0.583,0.972,1.166,1.943,1.749,2.915"/>
			</g>
			<g>
				<g>
					<path style="fill:#2A2640;" d="M345.823,385.976c-13.671,3.687-27.341,7.374-41.012,11.061
						c-4.317,1.164-7.243,5.254-7.342,9.643c-0.416,18.621-0.832,37.241-1.249,55.862c-0.288,12.875,19.712,12.871,20,0
						c0.416-18.621,0.832-37.241,1.249-55.862c-2.447,3.214-4.894,6.428-7.342,9.643c13.671-3.687,27.341-7.374,41.012-11.061
						C363.553,401.914,358.285,382.615,345.823,385.976L345.823,385.976z"/>
				</g>
				<path style="fill:none;stroke:#FFFFFF;stroke-width:0.75;stroke-linecap:round;stroke-miterlimit:10;" d="M314.35,410.921
					c0.972,1.166,2.239,2.192,3.21,3.358"/>
				<path style="fill:none;stroke:#FFFFFF;stroke-width:0.75;stroke-linecap:round;stroke-miterlimit:10;" d="M316.245,409.464
					c0.534,1.7,1.069,3.401,1.603,5.101"/>
				<path style="fill:none;stroke:#FFFFFF;stroke-width:0.75;stroke-linecap:round;stroke-miterlimit:10;" d="M341.723,392.881
					c1.494,1.297,3.338,2.187,5.283,2.549"/>
			</g>
			<g>
				<path style="fill:#3BBAFF;" d="M246.978,453.385l20.724,7.389l-5.246,14.712l-33.668-12.005l0.631-1.769
					C231.968,454.565,239.829,450.836,246.978,453.385z"/>
				<path style="fill:#FFFFFF;" d="M256.43,463.995c-0.202,1.554,0.894,2.978,2.449,3.18c1.554,0.202,2.978-0.894,3.18-2.449
					c0.202-1.554-0.894-2.978-2.449-3.18C258.055,461.344,256.632,462.44,256.43,463.995z"/>
				<path style="fill:#2A2640;" d="M263.774,471.792l-1.317,3.695l-33.668-12.005l0.631-1.769c0.234-0.656,0.527-1.273,0.846-1.87
					L263.774,471.792z"/>
			</g>
			<g>
				<g>
					<path style="fill:#3BBAFF;" d="M296.848,463.036h16.412c2.01,0,3.64,1.63,3.64,3.64v10.739h-23.692v-10.739
						C293.208,464.666,294.838,463.036,296.848,463.036z"/>
					<rect x="293.208" y="474.033" style="fill:#2A2640;" width="23.692" height="3.383"/>
				</g>
				<g>
					<path style="fill:#3BBAFF;" d="M294.352,463.036h11.066c3.487,0,6.313,2.826,6.313,6.313v8.067h-23.692v-8.067
						C288.039,465.863,290.866,463.036,294.352,463.036z"/>
					<rect x="288.039" y="474.033" style="fill:#2A2640;" width="23.692" height="3.383"/>
				</g>
				<path style="fill:#FFFFFF;" d="M312.57,467.524c-0.459,1.101-0.177,2.501,0.629,3.127c0.807,0.626,1.833,0.242,2.292-0.858
					c0.459-1.101,0.177-2.501-0.629-3.127C314.055,466.039,313.029,466.424,312.57,467.524z"/>
			</g>
		</g>
		<g>
			<g>
				<g>
					<path style="fill:#3BBAFF;" d="M319.528,385.956l40.389,5.81l-2.644-21.467c0,0,3.41-12.56,5.971-25.643
						c0.865-4.416-1.031-16.515-1.031-16.515s-1.172-8.553-10.544-12.29l-10.444-0.786c-6.779,4.289-10.913,6.808-11.699,12.373
						l-1.747,13.314l1.791,24.415L319.528,385.956z"/>
				</g>
			</g>
			<path style="fill:none;stroke:#2A2640;stroke-width:0.75;stroke-linecap:round;stroke-miterlimit:10;" d="M331.675,346.487
				c3.857,3.599,7.713,7.199,11.57,10.798"/>
			<path style="fill:none;stroke:#2A2640;stroke-width:0.75;stroke-linecap:round;stroke-miterlimit:10;" d="M331.885,351.541
				c2.557,3.747,5.115,7.495,7.672,11.243"/>
			<g>
				<g>
					<path style="fill:#2A2640;" d="M358.799,364.395c-3.461,1.446-6.937,2.857-10.45,4.189c-8.381,3.178-16.84,6.147-25.209,9.356
						l-3.612,8.016l16.029,2.306c0.544-0.203,1.087-0.409,1.63-0.616c3.757-1.435,7.542-2.79,11.278-4.28
						c3.325-1.326,6.621-2.722,9.908-4.137l-1.1-8.93C357.273,370.299,357.892,368.018,358.799,364.395z"/>
				</g>
			</g>
		</g>
		<g>
			<path style="fill:#FFC7C3;" d="M345.088,324.539L345.088,324.539c3.906,0.158,7.2-2.881,7.358-6.787l0.73-18.09l-14.145-0.57
				l-0.729,18.09C338.143,321.088,341.181,324.382,345.088,324.539z"/>
			<path style="fill:#FF9991;" d="M347.765,311.727c-2.699,2.316-5.989,3.573-9.41,4.102l0.675-16.737l14.145,0.57l-0.111,2.752
				C352.304,305.985,350.629,309.27,347.765,311.727z"/>
		</g>
		<g>
			<path style="fill:#2A2640;" d="M329.456,290.468l-0.738,23.098c0,0,11.53-4.49,13.471-7.873c2.416-4.211,0-19.42,0-19.42
				l-8.312-0.058C331.494,286.199,329.532,288.086,329.456,290.468z"/>
			<g>
				<path style="fill:#FFC7C3;" d="M334.25,309.884c3.376,2.244,17.901,0,22.898-8.279l6.157-13.369
					c2.865-8.282-1.526-17.318-9.808-20.183l0,0c-8.282-2.865-17.318,1.526-20.183,9.808c0,0-2.638,9.79-3.824,13.219
					C327.612,297.652,330.073,307.721,334.25,309.884z"/>
			</g>
			<path style="opacity:0.5;fill:#FF9991;" d="M353.496,268.053L353.496,268.053c-3.591-1.242-7.323-1.116-10.633,0.096l1.527,7.996
				l4.604,12.702l-3.888,20.839c4.673-1.317,9.546-3.946,12.042-8.081l6.157-13.369
				C366.169,279.954,361.778,270.918,353.496,268.053z"/>
			<g>
				<g>
					<path style="fill:#2A2640;" d="M345.581,290.962c-0.226,0.653,0.12,1.366,0.773,1.592c0.653,0.226,1.366-0.12,1.592-0.773
						c0.226-0.653-0.12-1.366-0.773-1.592C346.52,289.963,345.807,290.309,345.581,290.962z"/>
					<path style="fill:none;stroke:#2A2640;stroke-width:0.75;stroke-linecap:round;stroke-miterlimit:10;" d="M352.15,287.508
						c-1.153-1.018-2.673-1.609-4.211-1.637"/>
				</g>
				<g>
					<path style="fill:#2A2640;" d="M333.264,286.834c-0.226,0.653,0.12,1.366,0.774,1.592c0.653,0.226,1.366-0.12,1.592-0.773
						c0.226-0.653-0.12-1.366-0.773-1.592C334.203,285.835,333.49,286.181,333.264,286.834z"/>
					<path style="fill:none;stroke:#2A2640;stroke-width:0.75;stroke-linecap:round;stroke-miterlimit:10;" d="M338.427,282.511
						c-0.925-0.611-3.118-1.283-4.225-1.22"/>
				</g>
				<path style="fill:none;stroke:#FF9991;stroke-width:0.8079;stroke-linecap:round;stroke-miterlimit:10;" d="M338.184,305.334
					c-1.267,0.168-2.601-0.27-3.523-1.156"/>
			</g>
			<g>
				<path style="fill:#2A2640;" d="M354.439,268.389c9.096,3.475,13.561,13.788,10.378,22.991l-0.935,2.702
					c-1.036,2.994-4.302,4.581-7.296,3.546l0,0l3.411-9.861c1.049-3.033-0.559-6.342-3.592-7.392l-21.491-7.434
					C339.719,267.766,347.364,265.686,354.439,268.389z"/>
			</g>
			<path style="fill:none;stroke:#2A2640;stroke-width:0.75;stroke-linecap:round;stroke-miterlimit:10;" d="M335.062,300.944
				c1.369,0.996,3.09,1.499,4.781,1.396"/>
			<path style="fill:none;stroke:#2A2640;stroke-width:0.75;stroke-linecap:round;stroke-linejoin:round;stroke-miterlimit:10;" d="
				M339.88,288.648c-1.352,2.4-3.207,4.516-5.41,6.171c0.253,0.42,0.507,0.84,0.76,1.26"/>
			<g>
				<path style="fill:none;stroke:#FF9991;stroke-width:0.8079;stroke-linecap:round;stroke-miterlimit:10;" d="M343.797,294.146
					c0.149,0.646,0.298,1.293,0.448,1.939"/>
				<path style="fill:none;stroke:#FF9991;stroke-width:0.8079;stroke-linecap:round;stroke-miterlimit:10;" d="M345.425,294.799
					c0.149,0.646,0.299,1.293,0.448,1.939"/>
				<path style="fill:none;stroke:#FF9991;stroke-width:0.8079;stroke-linecap:round;stroke-miterlimit:10;" d="M347.052,295.452
					c0.149,0.646,0.299,1.293,0.448,1.939"/>
			</g>
			<g>
				<path style="fill:none;stroke:#FF9991;stroke-width:0.8079;stroke-linecap:round;stroke-miterlimit:10;" d="M331.645,289.467
					c0.149,0.646,0.299,1.293,0.448,1.939"/>
				<path style="fill:none;stroke:#FF9991;stroke-width:0.8079;stroke-linecap:round;stroke-miterlimit:10;" d="M333.273,290.12
					c0.149,0.646,0.298,1.293,0.448,1.939"/>
				<path style="fill:none;stroke:#FF9991;stroke-width:0.8079;stroke-linecap:round;stroke-miterlimit:10;" d="M334.901,290.772
					c0.149,0.646,0.298,1.293,0.448,1.939"/>
			</g>
			<path style="fill:#2A2640;" d="M344.555,275.154c0,0-11.782,1.475-15.066,15.926c0,0,0.102-12.651,5.426-18.14
				c0,0,0.896-0.946,2.517-1.846c2.937-1.63,6.569,0.286,7.055,3.61C344.506,274.845,344.529,274.995,344.555,275.154z"/>
			<path style="fill:#2A2640;" d="M343.569,274.539l7.368,14.051l-1.542,27.245c0,0,15.422-2.313,16.793-27.588
				c0.5-5.104-0.338-13.024-10.151-17.826C346.034,265.526,343.569,274.539,343.569,274.539z"/>
			<g>
				<path style="fill:#FFC7C3;" d="M364.115,294.228c-0.229-1.319-1.135-2.307-2.227-2.488c-0.429,2.015-1.318,8.369-1.488,9.564
					c1.192-0.692,2.249-1.833,2.961-3.218C363.972,296.901,364.334,295.484,364.115,294.228z"/>
			</g>
		</g>
		<g>
			<g>
				<g>
					<g>
						<g>
							<path style="fill:#3BBAFF;" d="M350.368,328.939c0.05,4.009-0.024,8.024-0.174,12.03c-0.222,5.961-0.016,12.97-2.082,18.667
								c-0.382,1.054-1.081,1.632-3.035,2.784c-2.81,1.657-5.832,2.902-8.875,4.055c-6.196,2.347-12.64,4.155-18.636,7.004
								c-7.526,3.575-0.96,14.747,6.538,11.185c5.835-2.772,13.171-4.647,19.474-7.255c6.419-2.655,13.936-5.895,16.544-12.883
								c4.009-10.739,3.34-24.257,3.199-35.587C363.219,320.609,350.265,320.586,350.368,328.939L350.368,328.939z"/>
						</g>
					</g>
				</g>
				<path style="fill:none;stroke:#2A2640;stroke-width:0.75;stroke-linecap:round;stroke-miterlimit:10;" d="M347.683,361.46
					c1.848-0.535,4.183-0.648,5.988,0.019"/>
				<path style="fill:none;stroke:#2A2640;stroke-width:0.75;stroke-linecap:round;stroke-miterlimit:10;" d="M347.683,361.46
					c1.579,0.402,2.994,1.307,3.939,2.635"/>
				<path style="fill:none;stroke:#2A2640;stroke-width:0.75;stroke-linecap:round;stroke-miterlimit:10;" d="M318.754,372.499
					c10.291-2.675,20.629-6.677,28.929-11.039"/>
				<path style="fill:none;stroke:#2A2640;stroke-width:0.75;stroke-linecap:round;stroke-miterlimit:10;" d="M347.552,361.505
					c2.296-8.164,3.564-17.23,3.314-26.883"/>
			</g>
			<path style="fill:#FFC7C3;" d="M318.255,387.488c4.391-0.239,7.757-3.993,7.517-8.383c-0.239-4.391-3.992-7.756-8.383-7.517
				c-4.391,0.239-7.757,3.992-7.517,8.383C310.11,384.361,313.864,387.727,318.255,387.488z"/>
		</g>
		<g>
			<path style="fill:#808080;" d="M323.915,388.106h-60.464v-3.788h56.676C322.219,384.318,323.915,386.014,323.915,388.106
				L323.915,388.106z"/>
			<path style="fill:#B3B3B3;" d="M263.451,386.396v1.711h60.464c0-0.619-0.162-1.195-0.426-1.711H263.451z"/>
			<path style="fill:#B3B3B3;" d="M303.134,388.106h-47.709c-1.63,0-2.952-1.322-2.952-2.952v-31.213
				c0-1.63,1.321-2.952,2.952-2.952h47.709c1.63,0,2.952,1.322,2.952,2.952v31.213C306.086,386.784,304.764,388.106,303.134,388.106
				z"/>
			<circle style="fill:#FFFFFF;" cx="279.279" cy="368.653" r="5.068"/>
		</g>
	</g>
	<g>
		<g>
			<path style="fill:#FFC7C3;" d="M404.586,156.902c1.484-4.871-1.261-10.022-6.132-11.506c-4.871-1.484-10.022,1.261-11.506,6.132
				c-1.484,4.871,1.261,10.022,6.132,11.506C397.951,164.518,403.102,161.773,404.586,156.902z"/>
			<g>
				<g>
					<path style="fill:#FFC7C3;" d="M407.641,238.091c-9.298-6.969-12.53-22.462-14.135-33.152
						c-1.969-13.117-1.977-28.466,4.076-40.597c3.711-7.438-7.459-14.006-11.185-6.538c-7.732,15.496-7.985,33.784-5.382,50.578
						c2.306,14.876,7.568,31.51,20.088,40.894C407.776,254.278,414.24,243.037,407.641,238.091L407.641,238.091z"/>
				</g>
			</g>
			<g>
				<path style="fill:#FF855C;" d="M408.667,236.17c-0.023-0.022-0.044-0.043-0.075-0.071c-0.5-0.47-0.983-0.953-1.449-1.457
					c-0.639-0.692-1.965-2.363-2.076-2.522c-1.175-1.684-2.978-5.145-4.077-7.645c-0.92-2.091-1.714-4.318-2.411-6.617
					l-16.921,3.708c3.219,11.37,8.693,22.377,18.066,29.376c8.903,6.648,18.149-7.903,9.296-14.513
					C408.859,236.307,408.746,236.225,408.667,236.17z"/>
			</g>
		</g>
		<g>
			<path style="fill:#2A2640;" d="M401.714,330.958v-12.772h42.899v12.772c0,5.225-4.236,9.461-9.461,9.461h-23.976
				C405.95,340.42,401.714,336.184,401.714,330.958z"/>
			<g>
				<g>
					<path style="fill:#2A2640;" d="M422.696,333.922c-0.201,16.867-1.039,33.846-0.605,50.706
						c0.43,16.705,2.614,33.539,3.93,50.197c0.598,7.57,1.196,15.14,1.795,22.71c0.468,5.923,4.721,11,11,11
						c5.589,0,11.47-5.045,11-11c-1.407-17.805-2.814-35.611-4.221-53.416c-0.501-6.339-1.288-12.727-1.508-19.083
						c-0.266-7.661,0.183-15.413,0.275-23.076c0.111-9.346,0.223-18.692,0.335-28.038
						C444.865,319.761,422.865,319.752,422.696,333.922L422.696,333.922z"/>
				</g>
				<path style="fill:none;stroke:#FFFFFF;stroke-width:0.75;stroke-linecap:round;stroke-miterlimit:10;" d="M431.811,388.529
					c-1.599,0.207-3.198,0.414-4.797,0.621"/>
				<path style="fill:none;stroke:#FFFFFF;stroke-width:0.75;stroke-linecap:round;stroke-miterlimit:10;" d="M440.389,335.151
					c-1.553-1.857-3.107-3.714-4.66-5.571"/>
			</g>
			<g>
				<g>
					<path style="fill:#2A2640;" d="M402.559,327.018c-3.439,17.875-6.877,35.75-10.316,53.624
						c-0.988,5.135-1.055,9.735-0.895,14.959c0.343,11.212,0.687,22.424,1.03,33.636c0.256,8.352,0.512,16.703,0.767,25.055
						c0.432,14.124,22.434,14.185,22,0c-0.558-18.219-1.116-36.437-1.673-54.656c-0.108-3.538-0.034-7.14-0.327-10.669
						c-0.318-3.832-0.962,4.15-0.043-0.633c1.869-9.718,3.739-19.436,5.608-29.153c1.687-8.772,3.375-17.544,5.062-26.316
						c1.121-5.828-1.638-11.87-7.683-13.531C410.706,317.856,403.686,321.155,402.559,327.018L402.559,327.018z"/>
				</g>
				<path style="fill:none;stroke:#FFFFFF;stroke-width:0.75;stroke-linecap:round;stroke-miterlimit:10;" d="M412.84,387.838
					c-0.56,0.08-1.12,0.16-1.68,0.24"/>
				<path style="fill:none;stroke:#FFFFFF;stroke-width:0.75;stroke-linecap:round;stroke-miterlimit:10;" d="M413.124,388.163
					c-0.92,1.2-1.84,2.4-2.76,3.6"/>
				<path style="fill:none;stroke:#FFFFFF;stroke-width:0.75;stroke-linecap:round;stroke-miterlimit:10;" d="M404.775,335.349
					c0.919-1.838,1.838-3.677,2.758-5.515"/>
			</g>
			<g>
				<path style="fill:#FF855C;" d="M434.274,455.84h9.116c4.315,0,7.813,3.498,7.813,7.813v9.984h-24.742v-9.984
					C426.461,459.338,429.959,455.84,434.274,455.84z"/>
				<rect x="426.461" y="469.45" style="fill:#2A2640;" width="24.742" height="4.187"/>
			</g>
			<g>
				<path style="fill:#FF855C;" d="M391.033,455.84h25.07v17.797h-40.727v-2.14C375.376,462.85,382.386,455.84,391.033,455.84z"/>
				<polygon style="fill:#FFFFFF;" points="402.561,468.044 399.542,459.529 402.04,459.529 405.059,468.044 				"/>
				<polygon style="fill:#FFFFFF;" points="398.361,468.044 395.342,459.529 397.839,459.529 400.858,468.044 				"/>
				<polygon style="fill:#FFFFFF;" points="394.161,468.044 391.142,459.529 393.639,459.529 396.658,468.044 				"/>
				<path style="fill:#2A2640;" d="M416.103,469.167v4.47h-40.727v-2.14c0-0.794,0.078-1.568,0.192-2.33H416.103z"/>
				<circle style="fill:#FFFFFF;" cx="410.111" cy="462.355" r="2.838"/>
			</g>
		</g>
		<g>
			<polygon style="fill:#FF855C;" points="399.234,325.246 447.092,325.246 447.092,233.546 423.163,239.648 399.234,233.546 			"/>
			<path style="fill:none;stroke:#2A2640;stroke-width:0.75;stroke-linecap:round;stroke-miterlimit:10;" d="M432.38,264.181
				c-3.411,11.293-11.011,21.269-20.994,27.556"/>
			<path style="fill:none;stroke:#2A2640;stroke-width:0.75;stroke-linecap:round;stroke-miterlimit:10;" d="M435.016,281.645
				c-4.41,12.488-10.947,24.221-19.245,34.543"/>
			<path style="fill:none;stroke:#2A2640;stroke-width:0.75;stroke-linecap:round;stroke-miterlimit:10;" d="M418.857,249.513
				c-3.982-1.304-6.939-5.267-7.055-9.456"/>
		</g>
		<g>
			<path style="fill:#FFC7C3;" d="M423.658,247.071L423.658,247.071c4.568,0,8.27-3.703,8.27-8.27v-20.465h-16.54v20.465
				C415.388,243.368,419.09,247.071,423.658,247.071z"/>
			<path style="fill:#FF9991;" d="M426.18,232.34c-3.042,2.765-6.823,4.348-10.793,5.109v-19.113h16.54v3.143
				C431.209,225.585,429.408,229.407,426.18,232.34z"/>
		</g>
		<g>
			<g>
				<path style="fill:#FFC7C3;" d="M414.869,231.029c5.997,2.275,18.33-4.057,21.315-10.839l4.905-15.332
					c1.916-8.808-3.672-17.502-12.48-19.418h0c-8.808-1.916-17.502,3.672-19.418,12.48c0,0-1.896,8.781-2.689,12.429
					C404.586,219.158,409.312,228.921,414.869,231.029z"/>
			</g>
			<g>
				
					<path style="fill:none;stroke:#2A2640;stroke-width:0.75;stroke-linecap:round;stroke-linejoin:round;stroke-miterlimit:10;" d="
					M417.083,209.559c-1.363,3.473-2.419,4.243-3.776,5.623c1.325,0.566,2.75,1.242,2.75,1.242"/>
				<g>
					<path style="fill:#2A2640;" d="M423.514,210.786c-0.151,0.695,0.29,1.38,0.984,1.531c0.695,0.151,1.38-0.29,1.531-0.984
						c0.151-0.695-0.29-1.38-0.984-1.531C424.351,209.651,423.665,210.091,423.514,210.786z"/>
					<path style="fill:none;stroke:#2A2640;stroke-width:0.75;stroke-linecap:round;stroke-miterlimit:10;" d="M430.187,204.797
						c-1.301-0.899-2.927-1.317-4.501-1.158"/>
				</g>
				<g>
					<path style="fill:#2A2640;" d="M409.971,206.814c-0.151,0.695,0.289,1.38,0.984,1.531c0.695,0.151,1.38-0.29,1.531-0.984
						c0.151-0.695-0.29-1.38-0.984-1.531C410.807,205.679,410.122,206.119,409.971,206.814z"/>
					<path style="fill:none;stroke:#2A2640;stroke-width:0.75;stroke-linecap:round;stroke-miterlimit:10;" d="M415.312,201.069
						c-1.02-0.511-3.341-0.93-4.464-0.731"/>
				</g>
				<path style="fill:none;stroke:#FF9991;stroke-width:0.8311;stroke-linecap:round;stroke-miterlimit:10;" d="M417.518,225.387
					c-1.274,0.326-2.69,0.042-3.739-0.751"/>
				<path style="fill:#2A2640;" d="M419.12,220.354c-1.802-0.135-3.947-0.91-5.509-1.85c-0.363-0.218-0.83-0.022-0.925,0.39
					c-0.297,1.297-0.42,3.756,2.521,4.696c2.977,0.951,4.076-1.201,4.453-2.433C419.778,220.775,419.519,220.383,419.12,220.354z"/>
			</g>
			<g>
				<path style="fill:#2A2640;" d="M429.613,185.669c9.715,2.44,15.533,12.428,13.404,22.216l-1.879,8.639l-5.765-1.254
					l2.281-10.488c0.702-3.226-1.345-6.41-4.571-7.111l-22.857-4.971C414.503,186.828,422.057,183.771,429.613,185.669z"/>
			</g>
			<g>
				
					<path style="fill:#FFC7C3;stroke:#2A2640;stroke-width:0.75;stroke-linecap:round;stroke-linejoin:round;stroke-miterlimit:10;" d="
					M437.709,213.424c0.774-1.345,2.187-2.175,3.409-2.001c1.222,0.173,2.175,1.338,2.299,2.81c0.11,1.307-0.389,2.725-1.121,3.885
					c-0.929,1.472-2.248,2.618-3.659,3.181c-1.411,0.563-2.904,0.538-4.142-0.07"/>
				
					<path style="fill:none;stroke:#2A2640;stroke-width:0.75;stroke-linecap:round;stroke-linejoin:round;stroke-miterlimit:10;" d="
					M440.944,216.166c0.377-0.62,0.14-1.48-0.376-1.731c-0.516-0.251-1.186-0.004-1.704,0.445c-0.518,0.449-0.916,1.074-1.304,1.685
					c0.539,0.054,0.869,0.782,0.648,1.429c-0.221,0.647-0.935,1.044-1.403,0.78"/>
			</g>
		</g>
		<g>
			<path style="fill:#FFC7C3;" d="M449.612,158.735c-1.027-4.987,2.183-9.862,7.169-10.89c4.987-1.027,9.863,2.183,10.89,7.17
				c1.027,4.987-2.183,9.863-7.17,10.89C455.514,166.932,450.639,163.722,449.612,158.735z"/>
			<g>
				<g>
					<path style="fill:#FFC7C3;" d="M445.067,250.757c13.017-7.99,19.638-24.38,23.28-38.517c4.083-15.85,5.713-34.332-0.332-49.909
						c-2.984-7.689-15.514-4.346-12.491,3.444c5.109,13.165,3.942,28.281,0.651,41.75c-2.69,11.01-7.353,25.728-17.645,32.046
						C431.436,243.925,437.936,255.134,445.067,250.757L445.067,250.757z"/>
				</g>
			</g>
			<g>
				<path style="fill:#FF855C;" d="M438.204,237.293c0.029-0.024,0.062-0.05,0.105-0.084c0.54-0.424,1.067-0.857,1.578-1.317
					c0.675-0.607,2.263-2.269,2.278-2.287c1.221-1.438,3.438-4.848,4.745-7.203c1.006-1.811,1.904-3.705,2.729-5.649l14.738,9.45
					c-4.22,9.14-10.179,17.452-18.663,22.639c-3.97,2.427-9.597,0.156-11.594-3.762c-2.249-4.412-0.223-9.158,3.762-11.594
					C438.023,237.4,438.123,237.34,438.204,237.293z"/>
			</g>
		</g>
	</g>
	<g>
		<g>
			<g>
				<path style="fill:#FF3B63;" d="M167.773,255.725c7.476,10.159,14.78,20.435,21.29,31.247c3.012,5.002,12.217,6.213,14.882,0
					c5.345-12.46,10.663-24.932,16.008-37.392c1.833-4.273,1.272-9.238-3.091-11.79c-3.63-2.123-9.946-1.209-11.791,3.092
					c-5.345,12.46-10.663,24.932-16.008,37.393c4.961,0,9.921,0,14.882,0c-6.51-10.812-13.814-21.088-21.29-31.247
					c-2.754-3.743-7.473-5.617-11.791-3.092C167.172,246.094,164.999,251.955,167.773,255.725L167.773,255.725z"/>
			</g>
			<g>
				<path style="fill:#2A2640;" d="M188.924,275.379c-2.146-9.752-3.801-19.81-7.043-29.287c-2.811-3.097-7.078-4.461-11.017-2.157
					c-3.692,2.16-5.866,8.021-3.092,11.79c7.476,10.158,14.784,20.433,21.29,31.247c0.745,1.238,1.87,2.241,3.181,2.96
					C191.095,285.09,189.993,280.238,188.924,275.379z"/>
			</g>
			<circle style="fill:#FFC7C3;" cx="216.178" cy="237.43" r="9.219"/>
			<path style="fill:none;stroke:#2A2640;stroke-width:0.75;stroke-linecap:round;stroke-miterlimit:10;" d="M194.78,264.92
				c-0.586,3.116-0.25,6.399,0.955,9.331"/>
			<path style="fill:none;stroke:#2A2640;stroke-width:0.75;stroke-linecap:round;stroke-miterlimit:10;" d="M194.486,265.558
				c-0.629,2.315-1.258,4.63-1.887,6.946"/>
		</g>
		<g>
			<path style="fill:#2A2640;" d="M182.661,337.427v-12.772h-42.899v12.772c0,5.225,4.236,9.461,9.461,9.461H173.2
				C178.425,346.888,182.661,342.652,182.661,337.427z"/>
			<g>
				<g>
					<path style="fill:#2A2640;" d="M140.679,340.391c0.201,16.866,1.039,33.846,0.605,50.706
						c-0.43,16.705-2.614,33.539-3.93,50.197c-0.598,7.57-1.196,15.14-1.795,22.71c-0.426,5.391,4.901,10,10,10
						c5.765,0,9.573-4.594,10-10c1.407-17.805,2.814-35.611,4.221-53.416c0.501-6.339,1.288-12.727,1.508-19.083
						c0.266-7.661-0.183-15.413-0.274-23.076c-0.112-9.346-0.223-18.692-0.335-28.038
						C160.526,327.53,140.525,327.496,140.679,340.391L140.679,340.391z"/>
				</g>
				<path style="fill:none;stroke:#FFFFFF;stroke-width:0.75;stroke-linecap:round;stroke-miterlimit:10;" d="M152.564,394.998
					c1.599,0.207,3.198,0.414,4.797,0.621"/>
				<path style="fill:none;stroke:#FFFFFF;stroke-width:0.75;stroke-linecap:round;stroke-miterlimit:10;" d="M143.986,341.62
					c1.553-1.857,3.107-3.714,4.66-5.571"/>
			</g>
			<g>
				<g>
					<path style="fill:#2A2640;" d="M161.567,339.069c3.421,17.785,6.842,35.57,10.264,53.355c0.218,1.133,0.394,2.285,0.656,3.409
						c0.557,2.385,0.167-3.21-0.224-1.417c-0.56,2.567-0.175,5.725-0.255,8.342c-0.341,11.143-0.682,22.286-1.024,33.43
						c-0.251,8.192-0.502,16.383-0.753,24.575c-0.394,12.874,19.606,12.861,20,0c0.562-18.35,1.124-36.699,1.686-55.049
						c0.166-5.434,0.669-10.754-0.32-16.113c-1.79-9.694-3.725-19.363-5.587-29.042c-1.719-8.935-3.438-17.87-5.156-26.805
						c-1.021-5.306-7.388-8.335-12.301-6.984C163,328.294,160.543,333.748,161.567,339.069L161.567,339.069z"/>
				</g>
				<path style="fill:none;stroke:#FFFFFF;stroke-width:0.75;stroke-linecap:round;stroke-miterlimit:10;" d="M171.535,394.306
					c0.56,0.08,1.12,0.16,1.68,0.24"/>
				<path style="fill:none;stroke:#FFFFFF;stroke-width:0.75;stroke-linecap:round;stroke-miterlimit:10;" d="M171.251,394.631
					c0.92,1.2,1.84,2.4,2.76,3.6"/>
				<path style="fill:none;stroke:#FFFFFF;stroke-width:0.75;stroke-linecap:round;stroke-miterlimit:10;" d="M179.6,341.818
					c-0.919-1.838-1.838-3.677-2.758-5.515"/>
			</g>
			<g>
				<path style="fill:#FF3B63;" d="M150.101,462.309h-9.116c-4.315,0-7.813,3.498-7.813,7.813v9.984h24.742v-9.984
					C157.914,465.807,154.416,462.309,150.101,462.309z"/>
				<rect x="133.172" y="475.919" style="fill:#2A2640;" width="24.743" height="4.187"/>
			</g>
			<g>
				<path style="fill:#FF3B63;" d="M193.342,462.309h-25.069v17.797h40.727v-2.14C208.999,469.319,201.989,462.309,193.342,462.309z
					"/>
				<polygon style="fill:#FFFFFF;" points="181.814,474.513 184.833,465.998 182.335,465.998 179.317,474.513 				"/>
				<polygon style="fill:#FFFFFF;" points="186.014,474.513 189.033,465.998 186.536,465.998 183.517,474.513 				"/>
				<polygon style="fill:#FFFFFF;" points="190.215,474.513 193.233,465.998 190.736,465.998 187.717,474.513 				"/>
				<path style="fill:#2A2640;" d="M168.272,475.636v4.47h40.727v-2.14c0-0.794-0.078-1.568-0.192-2.33H168.272z"/>
				<path style="fill:#FFFFFF;" d="M177.102,468.824c0,1.567-1.271,2.838-2.838,2.838c-1.567,0-2.838-1.271-2.838-2.838
					c0-1.567,1.271-2.838,2.838-2.838C175.832,465.986,177.102,467.257,177.102,468.824z"/>
			</g>
		</g>
		<g>
			<path style="fill:#FF3B63;" d="M176.381,331.715h-30.338c-4.838,0-8.76-3.922-8.76-8.76v-67.323
				c0-8.625,6.992-15.617,15.617-15.617h16.624c8.625,0,15.617,6.992,15.617,15.617v67.323
				C185.141,327.793,181.219,331.715,176.381,331.715z"/>
			<path style="fill:#2A2640;" d="M151.843,240.068c-8.13,0.546-14.56,7.295-14.56,15.563v35.188l14.56-44.461V240.068z"/>
			<path style="fill:none;stroke:#2A2640;stroke-width:0.75;stroke-linecap:round;stroke-miterlimit:10;" d="M151.995,270.649
				c3.411,11.293,11.011,21.269,20.993,27.556"/>
			<path style="fill:none;stroke:#2A2640;stroke-width:0.75;stroke-linecap:round;stroke-miterlimit:10;" d="M149.359,288.114
				c4.41,12.488,10.947,24.221,19.245,34.543"/>
			<path style="fill:none;stroke:#2A2640;stroke-width:0.75;stroke-linecap:round;stroke-miterlimit:10;" d="M168.369,254.617
				c3.982-1.304,6.939-5.267,7.055-9.456"/>
		</g>
		<g>
			
				<rect x="95.292" y="307.938" transform="matrix(0.981 -0.1941 0.1941 0.981 -62.6728 29.2066)" style="fill:#E8B03F;" width="44.833" height="52.984"/>
			
				<rect x="98.527" y="311.761" transform="matrix(0.981 -0.1941 0.1941 0.981 -62.674 29.2073)" style="fill:#FFFFFF;" width="38.362" height="45.337"/>
			
				<rect x="110.159" y="355.51" transform="matrix(0.981 -0.1941 0.1941 0.981 -67.3701 30.624)" style="fill:#2A2640;" width="24.862" height="7.187"/>
			
				<line style="fill:none;stroke:#2A2640;stroke-width:0.75;stroke-miterlimit:10;" x1="105.411" y1="352.34" x2="134.432" y2="346.46"/>
			
				<line style="fill:none;stroke:#2A2640;stroke-width:0.75;stroke-miterlimit:10;" x1="104.558" y1="348.357" x2="133.578" y2="342.477"/>
			
				<line style="fill:none;stroke:#2A2640;stroke-width:0.75;stroke-miterlimit:10;" x1="103.704" y1="344.374" x2="132.724" y2="338.494"/>
			
				<line style="fill:none;stroke:#2A2640;stroke-width:0.75;stroke-miterlimit:10;" x1="102.851" y1="340.39" x2="131.871" y2="334.51"/>
			
				<line style="fill:none;stroke:#2A2640;stroke-width:0.75;stroke-miterlimit:10;" x1="101.997" y1="336.407" x2="131.017" y2="330.527"/>
			
				<line style="fill:none;stroke:#2A2640;stroke-width:0.75;stroke-miterlimit:10;" x1="101.144" y1="332.424" x2="130.164" y2="326.544"/>
			
				<line style="fill:none;stroke:#2A2640;stroke-width:0.75;stroke-miterlimit:10;" x1="100.29" y1="328.441" x2="129.31" y2="322.561"/>
		</g>
		
			<ellipse transform="matrix(0.2307 -0.973 0.973 0.2307 -232.9113 368.7065)" style="fill:#FFC7C3;" cx="116.709" cy="331.643" rx="9.219" ry="9.219"/>
		<g>
			<path style="fill:#FF3B63;" d="M148.728,240.258c-15.21,5.522-25.549,20.35-32.312,34.386
				c-7.676,15.931-12.608,33.916-9.632,51.628c0.772,4.593,6.443,7.162,10.601,6.019c4.868-1.338,6.793-5.994,6.019-10.601
				c-2.107-12.543,2.437-27.02,7.895-38.347c2.849-5.913,6.196-11.799,10.421-16.846c2.032-2.427,4.258-4.825,6.759-6.778
				c0.531-0.415,1.434-1.02,2.355-1.569c1.382-0.825,1.773-1.017,2.477-1.273c4.372-1.587,7.322-5.857,6.019-10.601
				C158.17,242.057,153.125,238.662,148.728,240.258L148.728,240.258z"/>
		</g>
		<g>
			<path style="fill:#FFC7C3;" d="M162.241,250.293L162.241,250.293c-4.567,0-8.27-3.703-8.27-8.27v-20.465h16.54v20.465
				C170.511,246.59,166.808,250.293,162.241,250.293z"/>
			<path style="fill:#FF9991;" d="M159.718,235.562c3.042,2.765,6.823,4.349,10.793,5.109v-19.113h-16.54v3.143
				C154.69,228.807,156.491,232.629,159.718,235.562z"/>
		</g>
		<g>
			<g>
				<path style="fill:#FFC7C3;" d="M174.93,233.695c-5.8,2.739-18.592-2.605-22.1-9.132l-6.093-14.899
					c-2.601-8.631,2.286-17.736,10.917-20.338h0c8.631-2.601,17.736,2.286,20.338,10.917c0,0,2.579,8.606,3.656,12.179
					C184.249,221.053,180.304,231.157,174.93,233.695z"/>
				<path style="fill:#FF9991;" d="M154.703,199.539c2.443,3.128,6.096,5.041,9.871,6.062c4.869,1.316,10.125,1.392,15.177,0.482
					l-1.76-5.84c-2.601-8.631-11.707-13.519-20.338-10.917h0c-2.227,0.671-4.198,1.781-5.862,3.198
					C152.177,195.045,153.073,197.453,154.703,199.539z"/>
			</g>
			<g>
				
					<path style="fill:none;stroke:#2A2640;stroke-width:0.75;stroke-linecap:round;stroke-linejoin:round;stroke-miterlimit:10;" d="
					M171.037,212.466c1.632,3.355,2.745,4.04,4.206,5.309c-1.276,0.668-2.644,1.454-2.644,1.454"/>
				<g>
					<path style="fill:#2A2640;" d="M164.722,214.194c0.205,0.681-0.18,1.399-0.861,1.604c-0.681,0.205-1.399-0.18-1.604-0.861
						c-0.205-0.681,0.18-1.399,0.861-1.604C163.799,213.128,164.517,213.513,164.722,214.194z"/>
					<path style="fill:none;stroke:#2A2640;stroke-width:0.75;stroke-linecap:round;stroke-miterlimit:10;" d="M157.599,208.747
						c1.227-0.998,2.814-1.543,4.396-1.508"/>
				</g>
				<g>
					<path style="fill:#2A2640;" d="M177.817,209.454c0.205,0.681-0.18,1.399-0.861,1.604c-0.681,0.205-1.399-0.18-1.604-0.861
						c-0.205-0.681,0.18-1.399,0.861-1.604C176.894,208.388,177.612,208.774,177.817,209.454z"/>
					<path style="fill:none;stroke:#2A2640;stroke-width:0.75;stroke-linecap:round;stroke-miterlimit:10;" d="M172.136,203.863
						c0.976-0.59,3.258-1.19,4.393-1.079"/>
				</g>
				<path style="fill:none;stroke:#FF9991;stroke-width:0.8311;stroke-linecap:round;stroke-miterlimit:10;" d="M171.845,228.279
					c1.296,0.225,2.685-0.169,3.668-1.042"/>
				<path style="fill:#2A2640;" d="M169.853,223.387c1.786-0.276,3.863-1.217,5.347-2.277c0.345-0.246,0.826-0.087,0.952,0.317
					c0.398,1.27,0.714,3.711-2.145,4.879c-2.893,1.182-4.158-0.877-4.63-2.075C169.231,223.859,169.458,223.448,169.853,223.387z"/>
			</g>
			<g>
				<path style="fill:#2A2640;" d="M156.67,189.633c-9.493,3.195-14.509,13.609-11.619,23.2l2.551,8.465l5.649-1.703l-3.097-10.276
					c-0.953-3.161,0.837-6.495,3.998-7.448l22.397-6.75C171.825,189.602,164.054,187.147,156.67,189.633z"/>
				<path style="fill:none;stroke:#2A2640;stroke-width:0.75;stroke-linecap:round;stroke-miterlimit:10;" d="M147.179,201.154
					c-1.27-1.615-1.714-3.848-1.157-5.827"/>
				<path style="fill:none;stroke:#2A2640;stroke-width:0.75;stroke-linecap:round;stroke-miterlimit:10;" d="M146.332,200.262
					c-0.854-0.161-1.769,0.027-2.49,0.513"/>
				<path style="fill:#2A2640;" d="M154.779,200.658c8.364,2.303,20.531,3.452,27.521-1.685c0,0-4.191-5.724-7.78-7.951
					c-3.417-2.12-8.815-3.681-16.867-1.695c0,0-8.02,1.983-7.004,8.163C150.649,197.489,151.163,199.957,154.779,200.658z"/>
				<path style="fill:none;stroke:#2A2640;stroke-width:0.75;stroke-linecap:round;stroke-miterlimit:10;" d="M155.278,199.234
					c1.506,2.255,3.847,3.94,6.464,4.651"/>
			</g>
			<g>
				<path style="fill:none;stroke:#2A2640;stroke-width:0.75;stroke-miterlimit:10;" d="M168.853,216.635
					c0,3.268-2.649,5.917-5.918,5.917s-5.918-2.649-5.918-5.917c0-3.268,2.649-5.918,5.918-5.918S168.853,213.366,168.853,216.635z"
					/>
				<path style="fill:none;stroke:#2A2640;stroke-width:0.75;stroke-miterlimit:10;" d="M183.372,210.44
					c0,3.268-2.649,5.918-5.918,5.918c-3.268,0-5.917-2.649-5.917-5.918c0-3.268,2.649-5.918,5.917-5.918
					C180.723,204.522,183.372,207.171,183.372,210.44z"/>
				<path style="fill:none;stroke:#2A2640;stroke-width:0.75;stroke-miterlimit:10;" d="M167.938,213.649
					c0.627-1.294,2.043-2.165,3.481-2.141"/>
				<path style="fill:none;stroke:#2A2640;stroke-width:0.75;stroke-miterlimit:10;" d="M156.991,217.003
					c-2.291,0.322-4.582,0.643-6.873,0.965"/>
			</g>
			<g>
				
					<path style="fill:#FFC7C3;stroke:#2A2640;stroke-width:0.75;stroke-linecap:round;stroke-linejoin:round;stroke-miterlimit:10;" d="
					M150.778,217.938c-0.877-1.28-2.351-1.996-3.555-1.728c-1.204,0.269-2.063,1.505-2.071,2.982
					c-0.007,1.311,0.602,2.686,1.422,3.785c1.042,1.394,2.446,2.434,3.897,2.884c1.451,0.45,2.937,0.308,4.124-0.395"/>
				
					<path style="fill:none;stroke:#2A2640;stroke-width:0.75;stroke-linecap:round;stroke-linejoin:round;stroke-miterlimit:10;" d="
					M147.768,220.925c-0.424-0.588-0.256-1.464,0.238-1.755c0.494-0.291,1.182-0.097,1.734,0.31
					c0.552,0.407,0.998,0.998,1.432,1.577c-0.533,0.096-0.805,0.848-0.534,1.476c0.271,0.628,1.014,0.967,1.46,0.668"/>
			</g>
		</g>
	</g>
	<g>
		<path style="fill:#2A2640;" d="M72.799,279.86H48.467c-1.701,0-3.08-1.379-3.08-3.08v-55.595c0-1.701,1.379-3.08,3.08-3.08h24.333
			c1.701,0,3.08,1.379,3.08,3.08v55.595C75.879,278.481,74.5,279.86,72.799,279.86z"/>
		<g>
			<g>
				<path style="fill:#2A2640;" d="M55.736,471.77c0.018,0.228-12.528,0.737-12.528,0.737c-0.09-0.627-0.191-119.78-0.702-128.897
					c-1.135-20.275,22.048-19.753,21.881-5.765C64.191,354.29,55.143,464.26,55.736,471.77z"/>
			</g>
			<path style="fill:none;stroke:#FFFFFF;stroke-width:0.75;stroke-linecap:round;stroke-miterlimit:10;" d="M52.099,406.798
				c-1.562,0.202-3.124,0.404-4.687,0.606"/>
			<path style="fill:none;stroke:#FFFFFF;stroke-width:0.75;stroke-linecap:round;stroke-miterlimit:10;" d="M46.587,344.81
				c1.517-1.814,3.035-3.629,4.553-5.443"/>
		</g>
		<g>
			<g>
				<path style="fill:#2A2640;" d="M74.302,405.282c-0.488,5.48,0.676,64.26,0.675,64.374h12.352
					c0.635-18.405,4.003-65.078,4.003-65.078s-5.734-60.783-7.414-69.512c-1.107-5.756-8.289-7.27-13.618-5.805
					c-6.022,1.655-8.687,7.571-7.576,13.344c3.326,17.287,7.865,43.269,11.19,60.556C74.048,403.863,74.17,404.574,74.302,405.282z"
					/>
			</g>
			<path style="fill:none;stroke:#FFFFFF;stroke-width:0.75;stroke-linecap:round;stroke-miterlimit:10;" d="M74.715,404.977
				c0.547,0.078,1.094,0.156,1.641,0.234"/>
			<path style="fill:none;stroke:#FFFFFF;stroke-width:0.75;stroke-linecap:round;stroke-miterlimit:10;" d="M74.437,405.294
				c0.899,1.172,1.797,2.345,2.696,3.517"/>
			<path style="fill:none;stroke:#FFFFFF;stroke-width:0.75;stroke-linecap:round;stroke-miterlimit:10;" d="M81.38,345.003
				c-0.898-1.796-1.796-3.592-2.694-5.388"/>
		</g>
		<g>
			<path style="fill:#D582FF;" d="M51.505,466.84h-6.795c-3.216,0-5.824,2.607-5.824,5.824v7.442h18.442v-7.442
				C57.329,469.448,54.721,466.84,51.505,466.84z"/>
			<rect x="38.887" y="476.985" style="fill:#2A2640;" width="18.442" height="3.121"/>
		</g>
		<g>
			<path style="fill:#D582FF;" d="M90.675,468.583H74.444v11.523h26.368v-1.385C100.812,473.122,96.273,468.583,90.675,468.583z"/>
			<path style="fill:#2A2640;" d="M74.444,477.212v2.894h26.368v-1.385c0-0.514-0.05-1.015-0.124-1.509H74.444z"/>
			<path style="fill:#FFFFFF;" d="M80.161,472.802c0,1.015-0.823,1.837-1.837,1.837c-1.015,0-1.837-0.823-1.837-1.837
				s0.823-1.837,1.837-1.837C79.338,470.964,80.161,471.787,80.161,472.802z"/>
		</g>
		<g>
			<path style="fill:#D582FF;" d="M86.526,337.344c0,0-7.408,5.496-21.668,5.496c-15.511,0-25.087-5.496-25.087-5.496l6.398-30.339
				l-3.649-47.581c-0.106-1.385,0.639-2.695,1.883-3.313l19.439-9.647l16.45,9.29c1.014,0.573,1.615,1.671,1.55,2.834l-2.692,48.15
				L86.526,337.344z"/>
			<path style="fill:none;stroke:#2A2640;stroke-width:0.75;stroke-linecap:round;stroke-miterlimit:10;" d="M54.412,275.473
				c3.332,11.033,10.757,20.779,20.51,26.921"/>
			<path style="fill:none;stroke:#2A2640;stroke-width:0.75;stroke-linecap:round;stroke-miterlimit:10;" d="M51.836,292.536
				c4.309,12.2,10.695,23.663,18.802,33.747"/>
		</g>
		<g>
			<path style="fill:#FFC7C3;" d="M62.933,257.904L62.933,257.904c-3.696,0-6.693-2.996-6.693-6.693V234.65h13.385v16.561
				C69.625,254.907,66.629,257.904,62.933,257.904z"/>
			<path style="fill:#FF9991;" d="M60.891,245.983c2.462,2.237,5.521,3.519,8.734,4.135V234.65H56.24v2.543
				C56.822,240.516,58.28,243.609,60.891,245.983z"/>
		</g>
		<g>
			<g>
				<path style="fill:#FFC7C3;" d="M70.63,245.349c-5.32,2.018-16.26-3.599-18.908-9.615l-4.351-13.6
					c-1.699-7.813,3.257-15.525,11.071-17.225l0,0c7.814-1.699,15.525,3.257,17.225,11.071c0,0,1.682,7.79,2.385,11.025
					C79.751,234.819,75.559,243.479,70.63,245.349z"/>
			</g>
			<g>
				
					<path style="fill:none;stroke:#2A2640;stroke-width:0.75;stroke-linecap:round;stroke-linejoin:round;stroke-miterlimit:10;" d="
					M68.666,226.304c1.209,3.08,2.146,3.764,3.35,4.988c-1.175,0.502-2.44,1.102-2.44,1.102"/>
				<g>
					<path style="fill:#2A2640;" d="M62.961,227.393c0.134,0.616-0.257,1.224-0.873,1.358c-0.616,0.134-1.224-0.257-1.358-0.873
						c-0.134-0.616,0.257-1.224,0.873-1.358C62.219,226.385,62.827,226.776,62.961,227.393z"/>
					<path style="fill:none;stroke:#2A2640;stroke-width:0.75;stroke-linecap:round;stroke-miterlimit:10;" d="M57.041,222.08
						c1.154-0.797,2.596-1.168,3.992-1.027"/>
				</g>
				<g>
					<path style="fill:#2A2640;" d="M74.975,223.869c0.134,0.616-0.257,1.224-0.873,1.358c-0.616,0.134-1.224-0.257-1.358-0.873
						c-0.134-0.616,0.257-1.224,0.873-1.358C74.233,222.862,74.841,223.253,74.975,223.869z"/>
					<path style="fill:none;stroke:#2A2640;stroke-width:0.75;stroke-linecap:round;stroke-miterlimit:10;" d="M70.237,218.773
						c0.904-0.453,2.964-0.825,3.96-0.648"/>
				</g>
				<path style="fill:none;stroke:#FF9991;stroke-width:0.7372;stroke-linecap:round;stroke-miterlimit:10;" d="M68.28,240.344
					c1.13,0.29,2.386,0.037,3.317-0.666"/>
				<path style="fill:#2A2640;" d="M66.858,235.88c1.598-0.12,3.501-0.807,4.887-1.641c0.322-0.194,0.736-0.02,0.82,0.346
					c0.264,1.15,0.373,3.331-2.236,4.165c-2.641,0.844-3.616-1.065-3.95-2.158C66.275,236.253,66.505,235.906,66.858,235.88z"/>
			</g>
			<g>
				<path style="fill:#2A2640;" d="M57.551,205.112c-8.618,2.164-13.779,11.025-11.89,19.707l1.667,7.663l5.114-1.112l-2.023-9.303
					c-0.622-2.861,1.193-5.686,4.054-6.308l20.276-4.41C70.955,206.14,64.254,203.428,57.551,205.112z"/>
			</g>
			<g>
				
					<path style="fill:#FFC7C3;stroke:#2A2640;stroke-width:0.75;stroke-linecap:round;stroke-linejoin:round;stroke-miterlimit:10;" d="
					M50.369,229.732c-0.687-1.193-1.94-1.929-3.024-1.775c-1.084,0.154-1.929,1.187-2.039,2.493
					c-0.098,1.159,0.345,2.418,0.994,3.446c0.824,1.305,1.994,2.322,3.246,2.822c1.252,0.499,2.576,0.477,3.674-0.062"/>
				
					<path style="fill:none;stroke:#2A2640;stroke-width:0.75;stroke-linecap:round;stroke-linejoin:round;stroke-miterlimit:10;" d="
					M47.499,232.165c-0.334-0.55-0.124-1.313,0.333-1.536c0.457-0.223,1.052-0.003,1.511,0.395c0.459,0.399,0.813,0.952,1.157,1.495
					c-0.478,0.048-0.771,0.694-0.575,1.268c0.196,0.574,0.83,0.926,1.244,0.692"/>
			</g>
		</g>
		<g>
			<path style="fill:#FFC7C3;" d="M68.212,282.764c1.591,3.843-0.235,8.248-4.078,9.839c-3.843,1.591-8.248-0.235-9.839-4.078
				c-1.591-3.843,0.235-8.248,4.078-9.839C62.216,277.095,66.621,278.921,68.212,282.764z"/>
			<g>
				<g>
					<path style="fill:#FFC7C3;" d="M42.004,262.781c-2.582,4.321-5.1,8.681-7.575,13.064c-3.728,6.603-9.313,14.301-10.745,21.851
						c-1.795,9.461,7.625,12.982,15.02,9.558c9.469-4.383,18.174-11.15,25.837-18.148c4.672-4.267-2.281-11.19-6.937-6.937
						c-5.569,5.086-11.556,9.588-18.048,13.433c-1.32,0.782-2.942,2.072-4.448,2.494c-2.24,0.628-1.951,1.392-0.907-0.977
						c1.102-2.5,2.462-4.922,3.748-7.332c3.98-7.457,8.191-14.799,12.526-22.055C53.721,262.3,45.243,257.361,42.004,262.781
						L42.004,262.781z"/>
				</g>
			</g>
			<g>
				<path style="fill:#D582FF;" d="M40.781,258.242c-3.944,5.658-6.575,9.869-8.916,14.746c3.093,6.946,5.944,10.059,10.745,13.203
					c1.2-1.315,8.142-12.396,8.859-13.889C56.74,261.328,48.811,250.938,40.781,258.242z"/>
			</g>
		</g>
		<g>
			<path style="fill:#FFC7C3;" d="M56.991,282.721c-1.591,3.843,0.235,8.248,4.078,9.839c3.843,1.591,8.248-0.235,9.839-4.078
				c1.591-3.843-0.235-8.248-4.078-9.839C62.987,277.053,58.582,278.878,56.991,282.721z"/>
			<g>
				<g>
					<path style="fill:#FFC7C3;" d="M72.875,266.379c4.036,7.336,8.155,14.63,12.399,21.848c1.444,2.457,3.001,4.86,4.412,7.336
						c0.238,0.404,0.475,0.808,0.713,1.212c0.288,1.761,0.85,1.848,1.684,0.263c-1.164-0.942-3.437-1.446-4.786-2.123
						c-7.2-3.61-14.022-7.961-20.336-12.961c-5.048-3.998-12.249,3.109-7.149,7.149c8.123,6.434,16.793,12.187,26.293,16.394
						c3.823,1.693,8.125,2.633,11.784-0.031c3.438-2.503,3.916-6.872,2.643-10.649c-2.44-7.236-7.982-14.115-11.758-20.747
						c-2.418-4.248-4.813-8.511-7.169-12.794C78.468,255.574,69.734,260.669,72.875,266.379L72.875,266.379z"/>
				</g>
			</g>
			<g>
				<path style="fill:#D582FF;" d="M82.231,257.346c3.944,5.658,6.575,9.869,8.916,14.746c-3.093,6.946-5.944,10.059-10.745,13.203
					c-1.2-1.315-8.142-12.396-8.859-13.889C66.273,260.433,74.201,250.042,82.231,257.346z"/>
			</g>
		</g>
		<path style="fill:#2A2640;" d="M69.719,210.866l7.392,10.934c0,0-0.924-9.24-4.466-12.32
			C69.103,206.4,69.719,210.866,69.719,210.866z"/>
		<path style="fill:#2A2640;" d="M74.748,211.349c0,0-8.064,17.799-23.211,19.108l-3.179-15.146L74.748,211.349z"/>
	</g>
</g>
</svg>
